<?xml version="1.0" encoding="UTF-8"?>
<svg id="_レイヤー_2" data-name="レイヤー_2" xmlns="http://www.w3.org/2000/svg" viewBox="0 0 32 35">
  <defs>
    <style>
      .cls-1 {
        fill: #003277;
      }
    </style>
  </defs>
  <g id="_メインコンテンツ" data-name="メインコンテンツ">
    <path class="cls-1" d="M20.2,34.5C9.49,39.41-7.14,6.99,3.33,1.52l3.06-1.52,5.08,9.94-3.03,1.5c-3.18,1.71,3.45,14.7,6.7,13.12.13-.06,2.99-1.47,3-1.47l5.12,9.91s-2.89,1.43-3.07,1.51ZM17.97,14.94l4.24,1.27c.32-1.09.23-2.3-.35-3.38-.58-1.08-1.54-1.82-2.63-2.14l-1.26,4.25ZM20.59,6.11c2.26.67,4.26,2.21,5.46,4.45,1.21,2.24,1.4,4.76.72,7.02l-2.61-.78c.47-1.59.34-3.36-.51-4.94-.85-1.58-2.26-2.66-3.84-3.13l.78-2.62ZM21.97,1.46c3.44,1.03,6.49,3.37,8.33,6.79,1.85,3.42,2.13,7.26,1.11,10.71l-2.68-.8c.82-2.76.59-5.84-.88-8.58-1.48-2.74-3.92-4.62-6.68-5.44l.8-2.68Z"/>
  </g>
</svg>